<?xml version="1.0" encoding="UTF-8"?>
<svg id="Camada_2" data-name="Camada 2" xmlns="http://www.w3.org/2000/svg" viewBox="0 0 484.18 266.18">
  <defs>
    <style>
      .cls-1 {
        fill: #fff;
      }

      .cls-2 {
        fill: none;
        stroke: #fff;
        stroke-miterlimit: 10;
        stroke-width: 2.35px;
      }
    </style>
  </defs>
  <g id="conteudo">
    <g>
      <g>
        <path class="cls-1" d="M88.26,85.97c.46,1.23,1.2,2.4,2.23,3.49s2.2,2.05,3.53,2.88c1.32.82,2.69,1.46,4.11,1.92,1.41.46,2.72.69,3.9.69v2.6c-2.51,0-4.68-.1-6.5-.31-1.83-.21-3.48-.42-4.96-.65-1.48-.23-2.89-.44-4.21-.65-1.32-.21-2.76-.31-4.31-.31s-3,.1-4.35.31c-1.35.21-2.75.42-4.21.65-1.46.23-3.11.45-4.93.65-1.83.21-4,.31-6.5.31v-2.6c1.19,0,2.25-.23,3.18-.69.93-.46,1.68-1.1,2.23-1.92.55-.82.88-1.77.99-2.84.11-1.07-.03-2.23-.45-3.46l-8.08-23.08H24.58l-8.08,23.01c-.46,1.23-.63,2.4-.51,3.49s.45,2.05.99,2.88,1.29,1.46,2.23,1.92c.93.46,2,.69,3.18.69v2.6c-1.51,0-2.77-.1-3.8-.31-1.03-.21-1.95-.42-2.77-.65-.82-.23-1.59-.44-2.29-.65-.71-.21-1.47-.31-2.29-.31s-1.59.1-2.29.31c-.71.21-1.48.42-2.33.65-.84.23-1.79.45-2.84.65-1.05.21-2.31.31-3.77.31v-2.6c1.32,0,2.71-.25,4.14-.75,1.44-.5,2.81-1.17,4.11-2.02s2.44-1.8,3.42-2.88c.98-1.07,1.68-2.18,2.09-3.32L40.88,8.66l-2.67-7.46h20.41l29.65,84.77ZM25.47,60.43h33.48c-2.79-8.03-5.57-16.01-8.35-23.93-2.79-7.92-5.59-15.9-8.42-23.93l-16.71,47.86Z"/>
        <path class="cls-1" d="M137.36,30.98v2.6h-9.04v40.13c0,1.33.01,2.87.03,4.62.02,1.76.22,3.47.58,5.14.36,1.67.97,3.15,1.81,4.45.84,1.3,2.06,2.18,3.66,2.64.91.23,1.76.34,2.53.34,1.23,0,2.43-.23,3.59-.69,1.16-.46,2.27-1.08,3.32-1.88,1.05-.8,2.03-1.71,2.94-2.74.91-1.03,1.73-2.09,2.46-3.18l2.6,1.71c-1.37,2.37-2.9,4.42-4.59,6.13-1.69,1.71-3.49,3.12-5.41,4.21-1.92,1.1-3.9,1.88-5.96,2.36-2.05.48-4.11.72-6.16.72-2.69,0-5.28-.49-7.77-1.47-2.49-.98-4.69-2.45-6.61-4.42-1.92-1.96-3.46-4.44-4.62-7.43-1.16-2.99-1.75-6.54-1.75-10.65v-31.02c0-1.28-.25-2.46-.75-3.56-.5-1.1-1.16-2.04-1.99-2.84-.82-.8-1.78-1.43-2.88-1.88s-2.24-.69-3.42-.69v-2.6c3.83,0,7.34-.58,10.51-1.75,3.17-1.16,5.89-2.74,8.15-4.72s4.01-4.31,5.24-6.98,1.85-5.51,1.85-8.53h2.6v21.98h9.04Z"/>
        <path class="cls-1" d="M188.58,30.98c3.47,0,6.81.51,10.03,1.54,3.22,1.03,6.2,2.49,8.94,4.38,2.74,1.89,5.15,4.15,7.22,6.78,2.08,2.62,3.73,5.56,4.96,8.8-3.06.59-6.38,1.38-9.96,2.36-3.58.98-7.05,2.28-10.41,3.9-3.35,1.62-6.38,3.58-9.07,5.89-2.69,2.31-4.68,5.08-5.96,8.32-.64,1.6-1.03,3.3-1.16,5.1-.14,1.8.06,3.56.58,5.27.52,1.71,1.4,3.3,2.64,4.76s2.9,2.65,5,3.56c1.64.73,3.42,1.1,5.34,1.1,1.46,0,2.98-.25,4.55-.75,1.57-.5,3.21-1.32,4.9-2.47l1.37,2.12c-2.83,1.92-5.84,3.38-9.04,4.38-3.2,1-6.5,1.51-9.93,1.51-4.57,0-8.87-.87-12.91-2.6-4.04-1.73-7.57-4.11-10.58-7.12-3.01-3.01-5.4-6.54-7.16-10.58-1.76-4.04-2.64-8.36-2.64-12.98,0-3.06.4-6,1.2-8.83.8-2.83,1.92-5.48,3.36-7.94,1.44-2.46,3.17-4.71,5.2-6.74,2.03-2.03,4.28-3.77,6.74-5.2,2.46-1.44,5.11-2.56,7.94-3.36,2.83-.8,5.77-1.2,8.83-1.2ZM188.17,63.24c1.64-1.6,3.5-3.04,5.58-4.31,2.08-1.28,4.32-2.44,6.74-3.49-1.09-3.1-2.36-5.95-3.8-8.53-1.44-2.58-2.96-4.79-4.55-6.64-1.6-1.85-3.23-3.29-4.9-4.31-1.67-1.03-3.3-1.54-4.9-1.54-.59,0-1.16.07-1.71.21-1.74.46-3.14,1.42-4.21,2.88-1.07,1.46-1.87,3.21-2.4,5.24-.53,2.03-.83,4.23-.92,6.61-.09,2.38-.06,4.71.1,7.02.16,2.31.42,4.47.79,6.51.37,2.03.73,3.71,1.1,5.03.55,2.05,1.27,4.2,2.16,6.44.89,2.24,1.97,4.41,3.25,6.5-.18-3.56.41-6.79,1.78-9.69,1.37-2.9,3.33-5.54,5.89-7.91Z"/>
        <path class="cls-1" d="M223.29,97.54v-2.6c1.19,0,2.33-.23,3.42-.69,1.1-.46,2.05-1.08,2.88-1.88.82-.8,1.48-1.75,1.99-2.84.5-1.1.75-2.28.75-3.56V17.5c0-1.32-.23-2.53-.69-3.63s-1.07-2.02-1.85-2.77-1.7-1.31-2.77-1.68c-1.07-.37-2.2-.48-3.39-.34l-.34-2.53c2.24-.5,4.58-.89,7.02-1.16,2.44-.27,4.88-.56,7.33-.86,2.44-.3,4.86-.69,7.26-1.16,2.4-.48,4.64-1.2,6.75-2.16v84.77c0,1.28.25,2.46.75,3.56.5,1.1,1.16,2.04,1.99,2.84.82.8,1.78,1.43,2.88,1.88,1.1.46,2.24.69,3.42.69v2.6c-2.24,0-4.12-.1-5.65-.31-1.53-.21-2.94-.42-4.25-.65-1.3-.23-2.62-.44-3.97-.65-1.35-.21-2.96-.31-4.83-.31s-3.48.1-4.83.31c-1.35.21-2.67.42-3.97.65-1.3.23-2.71.45-4.21.65-1.51.21-3.4.31-5.68.31Z"/>
        <path class="cls-1" d="M264.24,97.54v-2.6c1.19,0,2.33-.23,3.42-.69,1.1-.46,2.05-1.08,2.88-1.88.82-.8,1.48-1.75,1.99-2.84.5-1.1.75-2.28.75-3.56v-38.69c0-1.32-.23-2.52-.69-3.59-.46-1.07-1.08-1.99-1.88-2.74s-1.72-1.31-2.77-1.68c-1.05-.36-2.17-.5-3.35-.41l-.34-2.53c2.24-.5,4.58-.88,7.02-1.13,2.44-.25,4.88-.54,7.33-.86,2.44-.32,4.85-.72,7.22-1.2,2.37-.48,4.61-1.17,6.71-2.09v54.92c0,1.28.25,2.46.75,3.56.5,1.1,1.17,2.04,2.02,2.84.84.8,1.81,1.43,2.91,1.88,1.1.46,2.24.69,3.42.69v2.6c-2.28,0-4.19-.1-5.72-.31-1.53-.21-2.94-.42-4.25-.65-1.3-.23-2.61-.44-3.94-.65-1.32-.21-2.92-.31-4.79-.31s-3.48.1-4.83.31c-1.35.21-2.67.42-3.97.65-1.3.23-2.71.45-4.21.65-1.51.21-3.4.31-5.68.31ZM282.93,6.2c1.32,0,2.57.25,3.73.75,1.16.5,2.18,1.19,3.05,2.05.87.87,1.55,1.9,2.05,3.08.5,1.19.75,2.44.75,3.77s-.25,2.57-.75,3.73c-.5,1.16-1.19,2.18-2.05,3.05-.87.87-1.88,1.55-3.05,2.05-1.16.5-2.41.75-3.73.75s-2.58-.25-3.77-.75c-1.19-.5-2.21-1.19-3.08-2.05s-1.55-1.88-2.05-3.05c-.5-1.16-.75-2.41-.75-3.73s.25-2.58.75-3.77c.5-1.19,1.19-2.21,2.05-3.08.87-.87,1.89-1.55,3.08-2.05,1.19-.5,2.44-.75,3.77-.75Z"/>
        <path class="cls-1" d="M338.33,30.98c3.47,0,6.81.51,10.03,1.54,3.22,1.03,6.2,2.49,8.94,4.38,2.74,1.89,5.15,4.15,7.22,6.78,2.08,2.62,3.73,5.56,4.96,8.8-3.06.59-6.38,1.38-9.96,2.36-3.58.98-7.05,2.28-10.41,3.9-3.35,1.62-6.38,3.58-9.07,5.89-2.69,2.31-4.68,5.08-5.96,8.32-.64,1.6-1.03,3.3-1.16,5.1-.14,1.8.06,3.56.58,5.27.52,1.71,1.4,3.3,2.64,4.76s2.9,2.65,5,3.56c1.64.73,3.42,1.1,5.34,1.1,1.46,0,2.98-.25,4.55-.75,1.57-.5,3.21-1.32,4.9-2.47l1.37,2.12c-2.83,1.92-5.84,3.38-9.04,4.38-3.2,1-6.5,1.51-9.93,1.51-4.57,0-8.87-.87-12.91-2.6-4.04-1.73-7.57-4.11-10.58-7.12-3.01-3.01-5.4-6.54-7.16-10.58-1.76-4.04-2.64-8.36-2.64-12.98,0-3.06.4-6,1.2-8.83.8-2.83,1.92-5.48,3.36-7.94,1.44-2.46,3.17-4.71,5.2-6.74,2.03-2.03,4.28-3.77,6.74-5.2,2.46-1.44,5.11-2.56,7.94-3.36,2.83-.8,5.77-1.2,8.83-1.2ZM337.92,63.24c1.64-1.6,3.5-3.04,5.58-4.31,2.08-1.28,4.32-2.44,6.74-3.49-1.09-3.1-2.36-5.95-3.8-8.53-1.44-2.58-2.96-4.79-4.55-6.64-1.6-1.85-3.23-3.29-4.9-4.31-1.67-1.03-3.3-1.54-4.9-1.54-.59,0-1.16.07-1.71.21-1.74.46-3.14,1.42-4.21,2.88-1.07,1.46-1.87,3.21-2.4,5.24-.53,2.03-.83,4.23-.92,6.61-.09,2.38-.06,4.71.1,7.02.16,2.31.42,4.47.79,6.51.37,2.03.73,3.71,1.1,5.03.55,2.05,1.27,4.2,2.16,6.44.89,2.24,1.97,4.41,3.25,6.5-.18-3.56.41-6.79,1.78-9.69,1.37-2.9,3.33-5.54,5.89-7.91Z"/>
      </g>
      <g>
        <path class="cls-1" d="M108.97,142.15c0,.41.08.8.24,1.15s.38.66.65.92.58.46.94.61.72.22,1.11.22v.84c-.74,0-1.35-.03-1.85-.1-.49-.07-.95-.14-1.37-.21-.42-.07-.84-.14-1.27-.21-.43-.07-.94-.1-1.55-.1-.68,0-1.27.07-1.78.22-.51.15-.95.28-1.34.4v-1.68c-.74.56-1.52.98-2.36,1.26-.84.28-1.72.42-2.65.42-1.05,0-2.01-.15-2.88-.44-.88-.29-1.67-.71-2.38-1.24s-1.33-1.16-1.86-1.88-.97-1.51-1.31-2.35c-.35-.85-.6-1.74-.77-2.67s-.25-1.88-.23-2.84c.03-1.34.25-2.62.65-3.83.41-1.21.99-2.28,1.77-3.2.77-.92,1.73-1.65,2.87-2.2,1.14-.54,2.46-.82,3.94-.82,1.21,0,2.22.24,3.04.72.82.48,1.54,1.24,2.18,2.29v-7.36c0-.43-.07-.82-.22-1.17s-.35-.65-.6-.89c-.25-.24-.55-.42-.89-.54-.35-.12-.71-.16-1.09-.11l-.11-.82c.72-.16,1.48-.29,2.26-.38.79-.09,1.58-.18,2.36-.28s1.57-.22,2.34-.38c.77-.15,1.5-.39,2.18-.7-.01,4.6-.02,9.16-.02,13.69v13.67ZM102.76,129.27c-.15-.41-.35-.85-.61-1.3s-.56-.87-.91-1.25c-.35-.38-.73-.68-1.16-.93-.43-.24-.89-.36-1.39-.36-.6,0-1.13.17-1.58.51s-.84.78-1.16,1.32c-.32.54-.59,1.15-.79,1.82-.21.68-.37,1.36-.49,2.04-.12.69-.2,1.34-.24,1.96-.04.62-.07,1.14-.07,1.57,0,1.1.08,2.19.24,3.25s.41,2.03.73,2.91c.32.88.73,1.62,1.2,2.22.48.6,1.04.99,1.67,1.17.43.12.87.18,1.33.18.49,0,1-.08,1.56-.25.55-.17,1.11-.48,1.67-.92v-13.92Z"/>
        <path class="cls-1" d="M123.75,124.4c.99,0,1.94.13,2.86.39.92.26,1.78.62,2.57,1.08.79.46,1.52,1.02,2.18,1.68.66.66,1.22,1.38,1.68,2.18s.83,1.65,1.08,2.56c.26.91.39,1.86.39,2.85,0,1.49-.28,2.88-.85,4.19-.57,1.3-1.34,2.44-2.31,3.41s-2.11,1.74-3.41,2.3c-1.3.56-2.7.84-4.19.84s-2.86-.28-4.17-.84c-1.3-.56-2.44-1.33-3.41-2.3-.97-.97-1.74-2.11-2.31-3.41s-.85-2.7-.85-4.19c0-.99.13-1.94.39-2.85s.62-1.77,1.08-2.56,1.02-1.52,1.68-2.18c.66-.66,1.38-1.21,2.18-1.68s1.65-.83,2.56-1.08c.91-.26,1.86-.39,2.85-.39ZM126.31,144.73c.6-.16,1.11-.57,1.5-1.21s.68-1.46.84-2.43c.16-.97.2-2.07.12-3.29s-.3-2.5-.65-3.82c-.32-1.22-.73-2.35-1.22-3.38-.49-1.03-1.02-1.92-1.59-2.67-.57-.75-1.17-1.34-1.79-1.77-.62-.43-1.21-.64-1.79-.64-.19,0-.38.02-.55.07-.6.16-1.11.56-1.5,1.2-.4.64-.68,1.45-.84,2.42s-.2,2.07-.11,3.29c.09,1.22.31,2.5.66,3.82.32,1.22.73,2.35,1.22,3.39.49,1.04,1.02,1.93,1.59,2.68.57.75,1.17,1.34,1.78,1.77.61.43,1.2.64,1.78.64.19,0,.38-.02.55-.07Z"/>
      </g>
      <g>
        <path class="cls-1" d="M148.47,170.4c2.63-1.65,5.01-3.76,7.15-6.33,2.13-2.57,4-5.4,5.6-8.47-.35,2.54-.44,4.95-.26,7.23.18,2.29.58,4.43,1.18,6.43.64,2.14,1.52,3.99,2.62,5.54s2.35,2.83,3.74,3.85c1.39,1.02,2.88,1.77,4.46,2.27,1.58.5,3.18.75,4.78.74,1.67,0,3.29-.24,4.86-.7,1.57-.47,2.97-1.16,4.22-2.07s2.27-2.02,3.07-3.33c.8-1.3,1.27-2.79,1.41-4.47.1-1.54-.21-3.12-.94-4.74-.73-1.62-2.04-3.26-3.93-4.9-1.85-1.64-4.02-3.21-6.49-4.71s-5.03-3.01-7.67-4.54c-2.64-1.53-5.25-3.12-7.83-4.76-2.58-1.64-4.91-3.41-6.98-5.32-2.07-1.91-3.79-3.99-5.16-6.23-1.37-2.25-2.17-4.73-2.39-7.44-.25-3.07.32-5.84,1.72-8.3,1.4-2.46,3.34-4.57,5.81-6.33,2.47-1.75,5.35-3.1,8.65-4.05,3.29-.95,6.7-1.43,10.22-1.43,2.88,0,5.55.29,7.99.87s4.73,1.44,6.87,2.56c2.14,1.12,4.17,2.51,6.09,4.17,1.92,1.66,3.8,3.56,5.62,5.7-2.63,1.68-5.01,3.81-7.15,6.38-2.13,2.57-4,5.38-5.6,8.42.25-1.75.4-3.61.45-5.57.05-1.96-.04-3.91-.27-5.84-.23-1.93-.66-3.78-1.26-5.57-.61-1.78-1.46-3.35-2.57-4.68-1.11-1.34-2.48-2.41-4.12-3.21-1.64-.8-3.62-1.2-5.93-1.2-2.85,0-5.21.7-7.07,2.1-1.87,1.4-3.13,3.15-3.79,5.25-.66,2.11-.64,4.4.04,6.88.68,2.48,2.11,4.83,4.28,7.04,1.78,1.75,3.87,3.41,6.25,4.97,2.39,1.57,4.86,3.1,7.43,4.6s5.12,3.01,7.67,4.54c2.55,1.53,4.86,3.17,6.92,4.92,1.57,1.28,2.82,2.58,3.77,3.9s1.67,2.61,2.17,3.88c.5,1.27.83,2.51.99,3.72.16,1.21.22,2.39.19,3.53-.03,1.86-.5,3.66-1.38,5.41-1.07,2.14-2.55,4.01-4.45,5.6-1.9,1.59-4.04,2.9-6.4,3.92-2.37,1.02-4.89,1.78-7.58,2.29-2.69.5-5.37.76-8.04.76-2.96,0-5.86-.31-8.71-.93-2.85-.62-5.53-1.5-8.04-2.64-2.51-1.14-4.81-2.53-6.89-4.17s-3.86-3.49-5.32-5.56Z"/>
        <path class="cls-1" d="M238.19,131.57c2.38,0,4.69.31,6.92.93,2.23.62,4.3,1.49,6.23,2.62,1.92,1.12,3.68,2.48,5.26,4.06,1.59,1.59,2.94,3.34,4.07,5.27,1.12,1.93,2,4,2.62,6.21.62,2.21.94,4.52.94,6.91,0,3.61-.68,6.99-2.04,10.15-1.37,3.16-3.22,5.92-5.57,8.28s-5.09,4.22-8.24,5.58c-3.15,1.36-6.52,2.04-10.12,2.05-3.56,0-6.92-.67-10.07-2.02-3.15-1.35-5.91-3.21-8.26-5.56s-4.22-5.11-5.59-8.27c-1.37-3.16-2.06-6.54-2.07-10.15,0-2.39.31-4.69.93-6.91.62-2.21,1.49-4.29,2.61-6.22,1.12-1.93,2.47-3.69,4.05-5.28,1.58-1.59,3.33-2.95,5.25-4.08,1.92-1.13,3.98-2,6.19-2.63,2.21-.63,4.5-.94,6.89-.95ZM244.45,180.83c1.46-.39,2.67-1.38,3.63-2.95.96-1.57,1.63-3.54,2.02-5.89.39-2.36.48-5.02.28-7.98-.2-2.96-.73-6.05-1.59-9.26-.79-2.96-1.77-5.69-2.95-8.19-1.18-2.5-2.46-4.66-3.85-6.48-1.39-1.82-2.83-3.24-4.33-4.28-1.5-1.03-2.94-1.55-4.33-1.55-.46,0-.91.06-1.33.16-1.46.4-2.67,1.37-3.63,2.92-.96,1.55-1.63,3.51-2.02,5.87-.39,2.36-.47,5.02-.26,7.98.22,2.96.75,6.05,1.61,9.26.79,2.96,1.77,5.7,2.95,8.22,1.18,2.52,2.46,4.68,3.85,6.5,1.39,1.82,2.83,3.25,4.3,4.28,1.48,1.03,2.91,1.55,4.3,1.55.46,0,.91-.05,1.33-.16Z"/>
        <path class="cls-1" d="M266.99,183.59v-2.04c.92,0,1.81-.18,2.67-.54.85-.36,1.6-.85,2.24-1.48.64-.62,1.15-1.37,1.55-2.22.39-.86.58-1.79.58-2.79l-.04-30.26c0-1.04-.18-1.98-.54-2.84-.36-.86-.84-1.58-1.44-2.17-.61-.59-1.33-1.02-2.17-1.31-.84-.28-1.72-.39-2.64-.32l-.27-1.98c1.74-.39,3.57-.69,5.47-.89,1.9-.2,3.81-.42,5.71-.65,1.9-.23,3.78-.54,5.63-.92,1.85-.38,3.59-.94,5.23-1.69v10.5c1.08-1.89,2.28-3.5,3.61-4.83,1.33-1.32,2.75-2.41,4.24-3.27,1.5-.86,3.03-1.48,4.62-1.85,1.58-.38,3.18-.57,4.78-.57,1.67,0,3.31.25,4.91.74,1.6.5,3.09,1.24,4.46,2.22,1.37.98,2.58,2.22,3.61,3.72,1.03,1.5,1.82,3.26,2.36,5.3.96-1.79,2.02-3.41,3.2-4.88,1.17-1.46,2.49-2.74,3.95-3.81,1.46-1.07,3.09-1.9,4.88-2.47s3.8-.86,6.01-.87c2.1,0,4.13.38,6.09,1.14,1.96.77,3.69,1.92,5.18,3.45s2.69,3.47,3.58,5.81c.89,2.34,1.34,5.11,1.35,8.33l.03,24.26c0,1,.2,1.93.59,2.78.39.86.92,1.6,1.58,2.22.66.62,1.42,1.11,2.27,1.47.85.36,1.74.53,2.67.53v2.04c-1.78,0-3.26-.08-4.46-.24-1.19-.16-2.3-.33-3.31-.5-1.01-.18-2.04-.35-3.07-.5s-2.28-.24-3.74-.24-2.71.08-3.76.25-2.08.33-3.1.51c-1.01.18-2.12.35-3.31.51-1.19.16-2.68.25-4.46.25v-2.04c.96,0,1.87-.18,2.72-.54.85-.36,1.6-.85,2.24-1.48.64-.62,1.15-1.37,1.55-2.22.39-.86.59-1.78.58-2.79l-.03-24.37c0-1.04-.01-2.24-.03-3.62-.02-1.37-.17-2.71-.46-4.02-.29-1.3-.76-2.46-1.42-3.48-.66-1.02-1.63-1.7-2.91-2.06-.36-.07-.69-.13-1.01-.19-.32-.05-.64-.08-.96-.08-1.32,0-2.58.33-3.79,1-1.21.66-2.32,1.51-3.33,2.55-1.01,1.04-1.91,2.18-2.69,3.43-.78,1.25-1.42,2.45-1.92,3.59.11.96.16,1.96.16,3l.03,24.26c0,1,.2,1.93.59,2.78s.91,1.6,1.55,2.22c.64.62,1.39,1.11,2.25,1.47.85.36,1.74.53,2.67.53v2.04c-1.74,0-3.21-.08-4.4-.24-1.19-.16-2.3-.33-3.31-.5-1.01-.18-2.05-.35-3.1-.5-1.05-.16-2.3-.24-3.76-.24-1.46,0-2.71.08-3.76.25-1.05.16-2.08.33-3.1.51-1.01.18-2.11.35-3.28.51s-2.65.24-4.43.25v-2.04c.92,0,1.81-.18,2.67-.54.85-.36,1.6-.85,2.24-1.48.64-.62,1.15-1.37,1.55-2.22.39-.86.59-1.79.58-2.79l-.03-24.37c0-1.04-.01-2.24-.03-3.62-.02-1.37-.17-2.71-.46-4.02-.29-1.3-.75-2.46-1.39-3.48-.64-1.02-1.61-1.7-2.89-2.06-.71-.18-1.37-.27-1.98-.27-1.32,0-2.58.33-3.79,1-1.21.66-2.31,1.5-3.31,2.52-1,1.02-1.88,2.13-2.64,3.32-.76,1.2-1.39,2.35-1.89,3.46l.04,27.53c0,1,.2,1.93.59,2.78s.92,1.6,1.58,2.22c.66.62,1.42,1.11,2.27,1.47.85.36,1.74.53,2.67.53v2.04c-1.78,0-3.26-.08-4.46-.24-1.19-.16-2.3-.33-3.31-.5-1.01-.18-2.04-.34-3.07-.5-1.03-.16-2.28-.24-3.74-.24-1.46,0-2.72.08-3.77.25-1.05.16-2.08.33-3.1.51-1.01.18-2.11.35-3.28.51-1.18.16-2.65.24-4.43.25Z"/>
      </g>
      <path class="cls-1" d="M341.3,3.37l18.25,16.95h-13.9l-6.11-13.16-6.02,13.16h-13.9l18.25-16.95h3.43Z"/>
      <g>
        <path class="cls-2" d="M356.21,90.58c1.23-4.18,3.85-11.12,9.6-18,1.08-1.29,6.5-7.64,15.9-12.6,5.14-2.71,23.07-11.12,44.11-4.5,5.01,1.58,23.61,7.43,30.61,24.61.86,2.11,5.23,12.85,1.8,24.31-2.3,7.68-6.8,11.32-8.1,21-.26,1.93-.79,6.36.3,11.7,1.62,7.94,5.71,12.39,11.1,19.5,6.02,7.95,11.75,15.52,15.6,24.01,2.1,4.62,6.8,15.32,5.7,29.41-1.25,16.03-9.3,27.15-13.2,31.81-7.74,9.23-16.33,13.5-21.3,15.9-20.19,9.76-39.37,7.34-48.91,6-7.8-1.09-16.99-2.47-27.31-8.4-5.46-3.14-16.07-9.24-22.21-22.21-1.89-3.99-7.08-14.96-3.3-28.21,3.81-13.34,14.13-19.95,16.8-21.6,10.34-6.4,20.53-5.98,25.51-5.7,3.44.19,21.33,1.55,33.61,15.9,2.71,3.17,9.7,11.35,9,22.21-.16,2.52-.54,8.29-4.8,12-7.39,6.43-19.83.85-21,.3-8.47-3.94-14.46-12.58-15.3-21.6-.68-7.23,2.18-12.27,7.8-22.21,3.84-6.78,9.3-16.43,18.9-21.6,1.47-.79,3.54-1.75,6-3.9,1.98-1.73,6.71-5.86,7.8-12.6,1.41-8.67-4.23-15.23-5.1-16.2-.66-.74-7.52-8.2-18-6.9-1,.12-10.53,1.47-15.3,10.2-3.97,7.26-2.63,15.94,1.8,21.91,5.56,7.49,14.23,8.3,15.6,8.4"/>
        <line class="cls-2" x1="403.84" y1="0" x2="404.11" y2="206.41"/>
        <line class="cls-2" x1="420.15" y1=".68" x2="420.15" y2="160.93"/>
        <path class="cls-2" d="M382.33,232.78c1.43,2.08,10.28,14.52,26.41,16.5,14.41,1.77,28.95-5.52,37.21-18.6"/>
      </g>
    </g>
  </g>
</svg>